<svg width="256" height="256" xmlns="http://www.w3.org/2000/svg"><path d="M48 14c26.177 0 47.46 20.954 47.99 47.004C112.703 48.443 133.482 41 156 41c55.228 0 100 44.772 100 100s-44.772 100-100 100S56 196.228 56 141c0-11.542 1.955-22.627 5.553-32.942A47.936 47.936 0 0 1 48 110C21.49 110 0 88.51 0 62s21.49-48 48-48Zm111 38h-6a6 6 0 0 0-6 6v78.003l-31.535-26.406-.121-.099a6 6 0 0 0-8.43.97l-4.408 5.553a6 6 0 0 0 .823 8.31l41.993 35.535a6 6 0 0 0 3.876 1.42H159a6 6 0 0 0 6-6V58a6 6 0 0 0-6-6ZM49.278 34.854c-4.11 3.44-5.205 9.32-3.288 17.641l.11.465-24.071 23.783a6.954 6.954 0 0 0 .054 9.943 6.885 6.885 0 0 0 9.552.017l.183-.182 24.428-25.274c8.187 2.157 14.23 1.387 18.128-2.31 5.847-5.544 4.383-16.922 2.775-18.633-.74-.787-2.86 1.365-5.07 3.769l-.459.5-.536.587c-2.259 2.475-4.41 4.792-5.072 4.079-1.183-1.273-6.214-5.6-6.968-6.366-.6-.61 1.537-2.496 3.894-4.564l.406-.357.486-.428.186-.164.37-.33c2.45-2.196 4.58-4.35 3.5-5.206-1.262-1.001-12.33-2.225-18.608 3.03Z" fill="#FFF" fill-rule="evenodd"/></svg>