<svg width="256" height="256" xmlns="http://www.w3.org/2000/svg"><path d="M128 0c70.692 0 128 57.308 128 128 0 70.692-57.308 128-128 128C57.308 256 0 198.692 0 128 0 57.308 57.308 0 128 0Zm53.029 47.53c-3.365-2.669-32.877-5.933-49.62 8.082-11.162 9.343-13.987 25.437-8.476 48.28l-71.02 70.172a9 9 0 0 0-.034 12.77h-.001l13.527 13.51a9 9 0 0 0 12.83-.114l71.754-74.238c21.833 5.751 37.946 3.698 48.34-6.159 15.592-14.786 11.69-45.126 7.401-49.688-4.288-4.563-25.943 27.867-29.698 23.825-1.36-1.463-4.622-4.436-8.058-7.511l-.738-.66c-4.314-3.852-8.703-7.706-9.785-8.805-1.728-1.757 5.062-7.484 11.906-13.508l.855-.755.852-.755c6.794-6.048 12.938-12.088 9.965-14.446Z" fill="#FFF" fill-rule="evenodd"/></svg>